<?xml version="1.0" encoding="UTF-8"?>
<svg width="100%" height="100%" viewBox="0 0 1200 600" preserveAspectRatio="none" xmlns="http://www.w3.org/2000/svg">
  <!-- Sky gradient -->
  <defs>
    <linearGradient id="skyGradient" x1="0%" y1="0%" x2="0%" y2="100%">
      <stop offset="0%" style="stop-color:#87CEEB;stop-opacity:1" />
      <stop offset="100%" style="stop-color:#E0F7FF;stop-opacity:1" />
    </linearGradient>
    
    <!-- Mountain gradients -->
    <linearGradient id="mountain1" x1="0%" y1="0%" x2="100%" y2="100%">
      <stop offset="0%" style="stop-color:#4A6B8A" />
      <stop offset="100%" style="stop-color:#2C3E50" />
    </linearGradient>
    
    <linearGradient id="mountain2" x1="0%" y1="0%" x2="100%" y2="100%">
      <stop offset="0%" style="stop-color:#5D7A9E" />
      <stop offset="100%" style="stop-color:#3A4F6B" />
    </linearGradient>
    
    <linearGradient id="mountain3" x1="0%" y1="0%" x2="100%" y2="100%">
      <stop offset="0%" style="stop-color:#6B8CAC" />
      <stop offset="100%" style="stop-color:#4A6B8A" />
    </linearGradient>
    
    <!-- Ground gradient -->
    <linearGradient id="groundGradient" x1="0%" y1="0%" x2="0%" y2="100%">
      <stop offset="0%" style="stop-color:#5D9C5D" />
      <stop offset="100%" style="stop-color:#3A6B3A" />
    </linearGradient>
  </defs>
  
  <!-- Sky -->
  <rect width="100%" height="100%" fill="url(#skyGradient)" />
  
  <!-- Sun -->
  <circle cx="900" cy="150" r="60" fill="#FFD700" />
  
  <!-- Clouds -->
  <g fill="#FFFFFF" opacity="0.8">
    <ellipse cx="200" cy="150" rx="60" ry="30" />
    <ellipse cx="220" cy="140" rx="50" ry="25" />
    <ellipse cx="180" cy="145" rx="50" ry="25" />
    
    <ellipse cx="500" cy="100" rx="80" ry="40" />
    <ellipse cx="530" cy="90" rx="60" ry="30" />
    <ellipse cx="480" cy="95" rx="60" ry="30" />
  </g>
  
  <!-- Distant mountains -->
  <path d="M-100,400 L200,200 L500,400 Z" fill="url(#mountain3)" opacity="0.7" />
  <path d="M300,400 L600,150 L900,400 Z" fill="url(#mountain3)" opacity="0.7" />
  <path d="M700,400 L1000,250 L1300,400 Z" fill="url(#mountain3)" opacity="0.7" />
  
  <!-- Mid-distance mountains -->
  <path d="M-50,600 L150,300 L350,600 Z" fill="url(#mountain2)" />
  <path d="M250,600 L500,350 L750,600 Z" fill="url(#mountain2)" />
  <path d="M650,600 L900,400 L1150,600 Z" fill="url(#mountain2)" />
  
  <!-- Foreground mountains -->
  <path d="M0,600 L200,350 L400,600 Z" fill="url(#mountain1)" />
  <path d="M300,600 L600,250 L900,600 Z" fill="url(#mountain1)" />
  <path d="M800,600 L1000,400 L1200,600 Z" fill="url(#mountain1)" />
  
  <!-- Ground -->
  <rect x="0" y="580" width="1200" height="20" fill="url(#groundGradient)" />
  
  <!-- Hiker (simple representation) -->
  <g id="hiker" transform="translate(100, 520)">
    <!-- Body -->
    <path d="M0,-20 L10,-35 L15,-30 L20,-35 L25,-30 L30,-35 L40,-20 Z" 
          fill="#4A4A4A" />
    <!-- Head -->
    <circle cx="20" cy="-40" r="8" fill="#FFD2A5" />
    <!-- Backpack -->
    <rect x="5" y="-30" width="8" height="15" rx="2" fill="#6B4E3B" />
  </g>
  
  <!-- Progress indicator -->
  <rect x="0" y="590" width="100%" height="10" fill="#E0E0E0" />
  <rect id="progress-bar" x="0" y="590" width="0%" height="10" fill="#4CAF50" />
  
  <!-- Level indicator -->
  <text x="20" y="30" font-family="Arial" font-size="16" fill="#333">
    Level <tspan id="level-indicator">1</tspan>
  </text>
</svg>
